<?xml version="1.0" encoding="iso-8859-1"?>
<!-- Generator: Adobe Illustrator 19.0.0, SVG Export Plug-In . SVG Version: 6.00 Build 0)  -->
<svg version="1.1" id="Layer_1" xmlns="http://www.w3.org/2000/svg" xmlns:xlink="http://www.w3.org/1999/xlink" x="0px" y="0px"
	 viewBox="0 0 512 512" style="enable-background:new 0 0 512 512;" xml:space="preserve">
<g>
	<g>
		<path d="M486.34,225.578v-22.581c0-20.357-16.562-36.919-36.92-36.919c-8.918,0-17.107,3.178-23.495,8.462
			c-3.575-16.642-18.396-29.157-36.091-29.157c-20.357,0-36.92,16.562-36.92,36.92v43.026h-34.38c-3.936,0-7.127,3.19-7.127,7.127
			s3.19,7.127,7.127,7.127h34.38v32.838H159.086v-32.838H290.58c3.936,0,7.127-3.19,7.127-7.127s-3.191-7.127-7.127-7.127H159.086
			v-43.026c0-20.358-16.562-36.92-36.92-36.92c-17.695,0-32.516,12.515-36.091,29.157c-6.388-5.282-14.577-8.462-23.493-8.462
			c-20.357,0-36.92,16.562-36.92,36.919v22.581C10.998,228.841,0,241.944,0,257.577c0,15.632,10.998,28.734,25.661,31.998v19.428
			c0,20.357,16.562,36.919,36.92,36.919c8.917,0,17.106-3.178,23.493-8.462c3.576,16.642,18.397,29.157,36.091,29.157
			c20.357,0,36.92-16.562,36.92-36.92v-43.026h193.83v43.026c0,20.358,16.562,36.92,36.92,36.92
			c17.695,0,32.515-12.515,36.091-29.157c6.388,5.282,14.576,8.462,23.495,8.462c20.357,0,36.92-16.562,36.92-36.919v-19.428
			c14.662-3.264,25.66-16.367,25.66-31.998S501.002,228.842,486.34,225.578z M25.661,274.682c-6.691-2.8-11.408-9.411-11.408-17.106
			c0-7.696,4.717-14.307,11.408-17.105V274.682z M144.833,329.697c0,12.499-10.169,22.667-22.667,22.667S99.5,342.196,99.5,329.697
			v-81.916c0-3.936-3.191-7.127-7.127-7.127s-7.127,3.19-7.127,7.127v61.22c0,12.498-10.167,22.666-22.666,22.666
			s-22.667-10.168-22.667-22.666V202.996c0-12.498,10.168-22.666,22.667-22.666s22.666,10.168,22.666,22.666v13.54
			c0,3.936,3.19,7.127,7.127,7.127s7.127-3.191,7.127-7.127v-34.236c0-12.498,10.168-22.667,22.667-22.667
			s22.667,10.168,22.667,22.667V329.697z M472.087,309.002c0,12.498-10.168,22.666-22.667,22.666s-22.667-10.168-22.667-22.666
			v-61.22c0-3.936-3.19-7.127-7.127-7.127s-7.127,3.19-7.127,7.127v81.916c0,12.498-10.167,22.667-22.666,22.667
			s-22.667-10.168-22.667-22.667V182.302c0-12.498,10.168-22.667,22.667-22.667c12.499,0,22.666,10.168,22.666,22.667v34.235
			c0,3.936,3.19,7.127,7.127,7.127s7.127-3.191,7.127-7.127v-13.54c0-12.498,10.168-22.666,22.667-22.666
			s22.667,10.168,22.667,22.666V309.002z M486.34,274.681v-34.211c6.692,2.798,11.407,9.41,11.407,17.105
			S493.032,271.882,486.34,274.681z"/>
	</g>
</g>
<g>
</g>
<g>
</g>
<g>
</g>
<g>
</g>
<g>
</g>
<g>
</g>
<g>
</g>
<g>
</g>
<g>
</g>
<g>
</g>
<g>
</g>
<g>
</g>
<g>
</g>
<g>
</g>
<g>
</g>
</svg>
