<?xml version="1.0" encoding="iso-8859-1"?>
<!-- Generator: Adobe Illustrator 19.0.0, SVG Export Plug-In . SVG Version: 6.00 Build 0)  -->
<svg version="1.1" id="Layer_1" xmlns="http://www.w3.org/2000/svg" xmlns:xlink="http://www.w3.org/1999/xlink" x="0px" y="0px"
	 viewBox="0 0 512 512" style="enable-background:new 0 0 512 512;" xml:space="preserve">
<g>
	<g>
		<path d="M426.764,0H190.836h-105.6C67.432,0,52.945,14.486,52.945,32.291v71.668v375.75c0,17.805,14.486,32.291,32.291,32.291
			h341.527c17.805,0,32.291-14.486,32.291-32.291v-375.75V32.291C459.055,14.486,444.568,0,426.764,0z M76.218,32.291
			c0-4.972,4.046-9.018,9.018-9.018H179.2v69.05H76.218V32.291z M435.782,479.709c0,4.972-4.046,9.018-9.018,9.018H85.236
			c-4.972,0-9.018-4.046-9.018-9.018V115.596h359.564V479.709z M435.782,92.323H202.473v-69.05h224.291
			c4.972,0,9.018,4.046,9.018,9.018V92.323z"/>
	</g>
</g>
<g>
	<g>
		<path d="M256,143.302c-87.48,0-158.65,71.17-158.65,158.65c0,87.48,71.17,158.65,158.65,158.65s158.65-71.17,158.65-158.65
			S343.48,143.302,256,143.302z M256,437.329c-74.647,0-135.377-60.73-135.377-135.378S181.353,166.575,256,166.575
			s135.377,60.73,135.377,135.377S330.647,437.329,256,437.329z"/>
	</g>
</g>
<g>
	<g>
		<path d="M362.844,256.382c-2.524-5.91-9.363-8.653-15.272-6.13c-5.91,2.524-8.655,9.361-6.131,15.272
			c4.921,11.522,7.417,23.779,7.417,36.429c0,51.202-41.656,92.858-92.858,92.858s-92.858-41.656-92.858-92.858
			c0-51.196,41.656-92.847,92.858-92.847c17.408,0,34.374,4.842,49.062,14.002c5.452,3.4,12.629,1.737,16.031-3.717
			c3.4-5.453,1.737-12.63-3.717-16.031c-18.387-11.465-39.61-17.527-61.377-17.527c-64.035,0-116.131,52.091-116.131,116.119
			c0,64.035,52.096,116.131,116.131,116.131s116.131-52.096,116.131-116.131C372.131,286.143,369.005,270.81,362.844,256.382z"/>
	</g>
</g>
<g>
	<g>
		<path d="M345.785,228.303c-0.278-0.339-0.557-0.675-0.839-1.01c-4.134-4.921-11.473-5.561-16.394-1.427
			c-4.921,4.133-5.56,11.474-1.427,16.395c0.226,0.268,0.449,0.536,0.671,0.807c2.302,2.803,5.638,4.254,9.001,4.254
			c2.597,0,5.212-0.866,7.376-2.643C349.141,240.603,349.862,233.27,345.785,228.303z"/>
	</g>
</g>
<g>
	<g>
		<path d="M146.816,44.998h-37.83c-6.427,0-11.636,5.21-11.636,11.636s5.21,11.636,11.636,11.636h37.83
			c6.427,0,11.636-5.21,11.636-11.636S153.243,44.998,146.816,44.998z"/>
	</g>
</g>
<g>
	<g>
		<path d="M325.865,44.998h-6.633c-6.427,0-11.636,5.21-11.636,11.636s5.21,11.636,11.636,11.636h6.633
			c6.427,0,11.636-5.21,11.636-11.636S332.292,44.998,325.865,44.998z"/>
	</g>
</g>
<g>
	<g>
		<path d="M366.127,44.998h-6.621c-6.427,0-11.636,5.21-11.636,11.636s5.21,11.636,11.636,11.636h6.621
			c6.427,0,11.636-5.21,11.636-11.636S372.553,44.998,366.127,44.998z"/>
	</g>
</g>
<g>
	<g>
		<path d="M406.4,44.998h-6.633c-6.427,0-11.636,5.21-11.636,11.636s5.21,11.636,11.636,11.636h6.633
			c6.427,0,11.636-5.21,11.636-11.636S412.827,44.998,406.4,44.998z"/>
	</g>
</g>
<g>
	<g>
		<path d="M256,28.125c-15.72,0-28.509,12.789-28.509,28.509c0,15.72,12.79,28.509,28.509,28.509s28.509-12.79,28.509-28.509
			C284.509,40.915,271.72,28.125,256,28.125z M256,61.871c-2.887,0-5.236-2.349-5.236-5.236c0-2.887,2.349-5.236,5.236-5.236
			s5.236,2.349,5.236,5.236C261.236,59.521,258.887,61.871,256,61.871z"/>
	</g>
</g>
<g>
</g>
<g>
</g>
<g>
</g>
<g>
</g>
<g>
</g>
<g>
</g>
<g>
</g>
<g>
</g>
<g>
</g>
<g>
</g>
<g>
</g>
<g>
</g>
<g>
</g>
<g>
</g>
<g>
</g>
</svg>
