<?xml version="1.0" encoding="iso-8859-1"?>
<!-- Generator: Adobe Illustrator 19.0.0, SVG Export Plug-In . SVG Version: 6.00 Build 0)  -->
<svg version="1.1" id="Layer_1" xmlns="http://www.w3.org/2000/svg" xmlns:xlink="http://www.w3.org/1999/xlink" x="0px" y="0px"
	 viewBox="0 0 512 512" style="enable-background:new 0 0 512 512;" xml:space="preserve">
<g>
	<g>
		<path d="M213.296,213.296c3.132-3.132,3.132-8.207,0-11.338c-3.131-3.131-8.207-3.131-11.337,0
			c-29.799,29.799-29.799,78.284,0,108.082c1.565,1.565,3.617,2.348,5.668,2.348c2.051,0,4.104-0.782,5.668-2.348
			c3.131-3.131,3.131-8.206,0-11.337C189.749,275.157,189.749,236.843,213.296,213.296z"/>
	</g>
</g>
<g>
	<g>
		<path d="M310.041,201.958c-3.131-3.13-8.207-3.13-11.337,0.001c-3.131,3.131-3.131,8.206,0,11.337
			c23.547,23.548,23.547,61.861,0,85.408c-3.131,3.131-3.131,8.206,0,11.337c1.565,1.565,3.617,2.348,5.668,2.348
			s4.103-0.782,5.668-2.348C339.84,280.241,339.84,231.756,310.041,201.958z"/>
	</g>
</g>
<g>
	<g>
		<path d="M374.613,208.52c-1.643-4.111-6.308-6.112-10.42-4.468c-4.111,1.644-6.112,6.309-4.468,10.42
			c16.615,41.562,6.903,88.866-24.743,120.511c-3.131,3.131-3.131,8.207,0,11.337c1.565,1.566,3.617,2.348,5.668,2.348
			s4.103-0.782,5.668-2.348C382.508,310.135,393.613,256.045,374.613,208.52z"/>
	</g>
</g>
<g>
	<g>
		<path d="M356.347,176.949c-3.099-3.923-6.472-7.715-10.026-11.269c-3.132-3.131-8.206-3.131-11.338,0
			c-3.131,3.131-3.13,8.207,0,11.337c3.115,3.115,6.069,6.435,8.781,9.869c1.582,2.004,3.927,3.049,6.297,3.049
			c1.739,0,3.492-0.563,4.964-1.725C358.498,185.465,359.092,180.423,356.347,176.949z"/>
	</g>
</g>
<g>
	<g>
		<path d="M134.69,134.69c3.131-3.131,3.131-8.207,0-11.337c-3.131-3.131-8.207-3.131-11.337,0
			c-73.141,73.141-73.141,192.152,0,265.293c1.565,1.565,3.617,2.348,5.668,2.348s4.104-0.782,5.668-2.348
			c3.131-3.131,3.131-8.206,0-11.337C67.801,310.419,67.801,201.58,134.69,134.69z"/>
	</g>
</g>
<g>
	<g>
		<path d="M388.646,123.353c-3.131-3.131-8.207-3.131-11.337,0c-3.131,3.131-3.131,8.206,0,11.337
			c66.89,66.89,66.89,175.728,0,242.619c-3.131,3.131-3.131,8.207,0,11.337c1.565,1.565,3.617,2.348,5.668,2.348
			s4.103-0.782,5.668-2.348C461.788,315.505,461.788,196.495,388.646,123.353z"/>
	</g>
</g>
<g>
	<g>
		<path d="M16.033,256c0-64.097,24.961-124.358,70.284-169.683c3.131-3.131,3.131-8.207,0-11.337c-3.131-3.131-8.207-3.131-11.337,0
			C26.628,123.333,0,187.62,0,256c0,68.38,26.628,132.667,74.981,181.019c1.565,1.565,3.617,2.348,5.668,2.348
			s4.103-0.782,5.668-2.348c3.131-3.131,3.131-8.206,0-11.337C40.994,380.358,16.033,320.097,16.033,256z"/>
	</g>
</g>
<g>
	<g>
		<path d="M437.019,74.981c-3.131-3.131-8.207-3.131-11.337,0c-3.131,3.131-3.131,8.206,0,11.337
			c45.323,45.324,70.284,105.585,70.284,169.683s-24.961,124.358-70.284,169.683c-3.131,3.131-3.131,8.207,0,11.337
			c1.565,1.565,3.617,2.348,5.668,2.348s4.103-0.782,5.668-2.348C485.372,388.667,512,324.38,512,256
			S485.372,123.333,437.019,74.981z"/>
	</g>
</g>
<g>
	<g>
		<path d="M289.18,250.25c-0.752-4.362-4.898-7.291-9.262-6.537c-4.363,0.753-7.29,4.899-6.538,9.262
			c0.171,0.99,0.258,2.007,0.258,3.025c0,9.725-7.912,17.637-17.637,17.637s-17.637-7.912-17.637-17.637
			c0-9.725,7.912-17.637,17.637-17.637c0.874,0,1.752,0.064,2.608,0.19c4.376,0.648,8.455-2.379,9.102-6.76s-2.379-8.455-6.76-9.102
			c-1.629-0.24-3.295-0.362-4.951-0.362c-18.566,0-33.67,15.105-33.67,33.67s15.104,33.67,33.67,33.67s33.67-15.105,33.67-33.67
			C289.669,254.072,289.504,252.138,289.18,250.25z"/>
	</g>
</g>
<g>
	<g>
		<path d="M177.017,165.681c-3.131-3.132-8.207-3.133-11.338-0.001c-36.186,36.186-47.292,90.276-28.293,137.801
			c1.253,3.135,4.264,5.043,7.446,5.043c0.99,0,1.998-0.185,2.974-0.575c4.111-1.644,6.112-6.309,4.468-10.42
			c-16.615-41.562-6.903-88.866,24.743-120.511C180.148,173.886,180.148,168.81,177.017,165.681z"/>
	</g>
</g>
<g>
	<g>
		<path d="M177.018,334.984c-3.116-3.114-6.07-6.435-8.782-9.869c-2.743-3.475-7.785-4.067-11.26-1.323
			c-3.474,2.744-4.067,7.786-1.322,11.26c3.099,3.923,6.472,7.715,10.026,11.269c1.566,1.565,3.617,2.348,5.668,2.348
			s4.103-0.782,5.669-2.348C180.149,343.19,180.148,338.113,177.018,334.984z"/>
	</g>
</g>
<g>
</g>
<g>
</g>
<g>
</g>
<g>
</g>
<g>
</g>
<g>
</g>
<g>
</g>
<g>
</g>
<g>
</g>
<g>
</g>
<g>
</g>
<g>
</g>
<g>
</g>
<g>
</g>
<g>
</g>
</svg>
