<?xml version="1.0" encoding="iso-8859-1"?>
<!-- Generator: Adobe Illustrator 19.0.0, SVG Export Plug-In . SVG Version: 6.00 Build 0)  -->
<svg version="1.1" id="Layer_1" xmlns="http://www.w3.org/2000/svg" xmlns:xlink="http://www.w3.org/1999/xlink" x="0px" y="0px"
	 viewBox="0 0 512 512" style="enable-background:new 0 0 512 512;" xml:space="preserve">
<g>
	<g>
		<path d="M503.248,286.658l-86.419-70.877c-1.637-1.343-3.742-1.979-5.847-1.772l-20.679,2.044l-19.605-16.08
			c-3.407-2.796-8.44-2.3-11.235,1.109c-2.796,3.409-2.299,8.44,1.11,11.235l15.99,13.114l-11.476,13.993l-102.165-83.793
			c3.5-4.594,11.303-13.834,11.489-14.043l53.529,42.675c3.681,2.935,9.25,1.974,11.746-2.009c2.128-3.393,1.337-7.98-1.793-10.475
			l-52.515-41.865c4.081-4.083,8.296-8.039,12.636-11.83l1.243,1.02c4.445,3.646,9.822,5.421,15.166,5.421
			c6.932,0,13.811-2.987,18.539-8.752l12.15-14.814c4.058-4.945,5.945-11.177,5.316-17.542c-0.628-6.366-3.699-12.107-8.645-16.164
			L267.711,6.497c-4.945-4.058-11.176-5.943-17.542-5.316c-6.366,0.629-12.107,3.7-16.164,8.647l-12.151,14.814
			c-4.058,4.947-5.945,11.177-5.316,17.543s3.7,12.107,8.645,16.164l2.495,2.046c-7.062,12.256-15.144,23.983-24.08,34.879
			c-9.321,11.365-19.682,21.972-30.823,31.601l-2.268-1.861c-10.21-8.374-25.332-6.88-33.706,3.331L124.65,143.16
			c-8.374,10.211-6.88,25.332,3.331,33.707l74.073,60.752c4.446,3.647,9.822,5.422,15.167,5.422c6.932,0,13.812-2.987,18.539-8.752
			l12.15-14.814c4.058-4.947,5.945-11.177,5.316-17.543s-3.7-12.107-8.645-16.164l-0.984-0.807
			c3.14-5.561,6.488-10.998,10.029-16.304l104.951,86.078l2.043,20.678c0.208,2.107,1.245,4.045,2.883,5.388l86.419,70.877
			c10.085,8.272,25.44,6.745,33.706-3.33l22.952-27.983C514.953,310.153,513.459,295.032,503.248,286.658z M234.2,34.768
			l12.152-14.815c2.758-3.364,7.87-3.869,11.235-1.11l74.074,60.752c3.363,2.758,3.869,7.871,1.109,11.235l-12.15,14.814
			c-2.791,3.402-7.829,3.903-11.236,1.11l-74.073-60.752C231.906,43.211,231.408,38.171,234.2,34.768z M235.566,209.348
			l-12.151,14.815c-2.759,3.364-7.87,3.87-11.235,1.11l-74.073-60.752c-3.404-2.792-3.902-7.832-1.11-11.236l12.151-14.814
			c2.754-3.358,7.875-3.866,11.235-1.11l74.073,60.752C237.818,200.871,238.326,205.983,235.566,209.348z M231.065,174.682
			l-45.77-37.54c11.042-9.739,21.333-20.385,30.649-31.744c8.933-10.89,17.072-22.556,24.249-34.74l45.324,37.173
			c-8.371,7.46-16.318,15.457-23.679,23.864C250.238,144.946,239.914,159.38,231.065,174.682z M494.234,310.239l-22.952,27.983
			c-2.792,3.403-7.83,3.901-11.236,1.11l-83.862-68.781l-1.717-17.388l17.406-21.223l17.388-1.718l83.863,68.78
			C496.527,301.795,497.025,306.835,494.234,310.239z"/>
	</g>
</g>
<g>
	<g>
		<path d="M284.306,334.149l-93.672-51.094c-2.382-1.301-5.263-1.301-7.646,0l-93.672,51.094c-3.87,2.111-5.298,6.96-3.186,10.831
			c2.111,3.87,6.962,5.298,10.831,3.186l89.849-49.008l89.848,49.008c4.081,2.228,9.316,0.398,11.156-3.854
			C289.431,340.577,287.873,336.094,284.306,334.149z"/>
	</g>
</g>
<g>
	<g>
		<path d="M306.029,494.97h-17.563v-26.079c0-4.409-3.573-7.983-7.983-7.983h-17.563V358.188c0-3.024-1.708-5.788-4.413-7.14
			l-68.125-34.062c-2.247-1.124-4.893-1.124-7.14,0l-68.125,34.062c-2.705,1.352-4.413,4.116-4.413,7.14v102.719H93.139
			c-4.409,0-7.983,3.574-7.983,7.983v26.079H67.593c-4.409,0-7.983,3.574-7.983,7.983s3.574,7.983,7.983,7.983h68.125
			c4.409,0,7.983-3.574,7.983-7.983s-3.574-7.983-7.983-7.983h-34.595v-18.096h171.376v18.096h-94.204
			c-4.409,0-7.983,3.574-7.983,7.983s3.574,7.983,7.983,7.983h127.734c4.41,0,7.983-3.574,7.983-7.983
			S310.439,494.97,306.029,494.97z M195.859,460.908h-18.096v-43.642h18.096V460.908z M246.952,460.908h-35.127v-51.626
			c0-4.409-3.574-7.983-7.983-7.983H169.78c-4.409,0-7.983,3.574-7.983,7.983v51.626h-35.127v-97.786l60.141-30.071l60.141,30.071
			V460.908z"/>
	</g>
</g>
<g>
	<g>
		<path d="M389.056,414.072h-6.919v-22.353h17.563c4.41,0,7.983-3.574,7.983-7.983c0-4.409-3.573-7.983-7.983-7.983h-17.563v-9.048
			c0-4.409-3.573-7.983-7.983-7.983c-4.41,0-7.983,3.574-7.983,7.983v9.048h-6.919c-10.271,0-18.628,8.357-18.628,18.628v17.031
			c0,10.271,8.357,18.628,18.628,18.628h6.919v22.353h-17.563c-4.41,0-7.983,3.574-7.983,7.983s3.573,7.983,7.983,7.983h17.563
			v9.048c0,4.409,3.573,7.983,7.983,7.983c4.41,0,7.983-3.574,7.983-7.983v-9.048h6.919c10.271,0,18.628-8.357,18.628-18.628V432.7
			C407.684,422.429,399.327,414.072,389.056,414.072z M366.17,414.072h-6.919c-1.468,0-2.661-1.194-2.661-2.661v-17.031
			c0-1.467,1.193-2.661,2.661-2.661h6.919V414.072z M391.717,449.731c0,1.467-1.193,2.661-2.661,2.661h-6.919v-22.353h6.919
			c1.468,0,2.661,1.194,2.661,2.661V449.731z"/>
	</g>
</g>
<g>
	<g>
		<path d="M457.181,90.479h-6.919V68.126h17.563c4.41,0,7.983-3.574,7.983-7.983s-3.573-7.983-7.983-7.983h-17.563v-9.048
			c0-4.409-3.573-7.983-7.983-7.983c-4.41,0-7.983,3.574-7.983,7.983v9.048h-6.919c-10.271,0-18.628,8.357-18.628,18.628v17.031
			c0,10.271,8.357,18.628,18.628,18.628h6.919v22.353c0,0-17.563,0-17.563,0c-4.41,0-7.983,3.574-7.983,7.983
			s3.573,7.983,7.983,7.983h17.563v9.048c0,4.409,3.573,7.983,7.983,7.983c4.41,0,7.983-3.574,7.983-7.983v-9.048h6.919
			c10.271,0,18.628-8.357,18.628-18.628v-17.031C475.809,98.836,467.452,90.479,457.181,90.479z M434.295,90.479h-6.919
			c-1.468,0-2.661-1.194-2.661-2.661V70.787c0-1.467,1.193-2.661,2.661-2.661h6.919V90.479z M459.842,126.138
			c0,1.467-1.193,2.661-2.661,2.661h-6.919v-22.353h6.919c1.468,0,2.661,1.194,2.661,2.661V126.138z"/>
	</g>
</g>
<g>
	<g>
		<path d="M48.432,209.698h-6.919v-22.353h17.563c4.409,0,7.983-3.574,7.983-7.983c0-4.409-3.574-7.983-7.983-7.983H41.513v-9.048
			c0-4.409-3.574-7.983-7.983-7.983s-7.983,3.574-7.983,7.983v9.048h-6.919C8.357,171.377,0,179.734,0,190.005v17.031
			c0,10.271,8.357,18.628,18.628,18.628h6.919v22.353H7.983c-4.409,0-7.983,3.574-7.983,7.983c0,4.409,3.574,7.983,7.983,7.983
			h17.563v9.048c0,4.409,3.574,7.983,7.983,7.983s7.983-3.574,7.983-7.983v-9.048h6.919c10.271,0,18.628-8.357,18.628-18.628
			v-17.031C67.06,218.055,58.703,209.698,48.432,209.698z M25.547,209.698h-6.919c-1.467,0-2.661-1.194-2.661-2.661v-17.031
			c0-1.467,1.194-2.661,2.661-2.661h6.919V209.698z M51.094,245.357c0,1.467-1.194,2.661-2.661,2.661h-6.919v-22.353h6.919
			c1.467,0,2.661,1.194,2.661,2.661V245.357z"/>
	</g>
</g>
<g>
</g>
<g>
</g>
<g>
</g>
<g>
</g>
<g>
</g>
<g>
</g>
<g>
</g>
<g>
</g>
<g>
</g>
<g>
</g>
<g>
</g>
<g>
</g>
<g>
</g>
<g>
</g>
<g>
</g>
</svg>
