<?xml version="1.0" encoding="iso-8859-1"?>
<!-- Generator: Adobe Illustrator 19.0.0, SVG Export Plug-In . SVG Version: 6.00 Build 0)  -->
<svg version="1.1" id="Layer_1" xmlns="http://www.w3.org/2000/svg" xmlns:xlink="http://www.w3.org/1999/xlink" x="0px" y="0px"
	 viewBox="0 0 512 512" style="enable-background:new 0 0 512 512;" xml:space="preserve">
<circle style="fill:#EFC84A;" cx="256" cy="256" r="256"/>
<path style="opacity:0.1;enable-background:new    ;" d="M493.664,351.126l-209.771-209.74l-1.707-1.76
	c-11.093-11.626-23.413-21.6-37.014-29.814c-1.386-0.8-3.2-0.586-4.373,0.586l-11.253,11.254c-1.386,1.386-1.386,3.626,0,5.014
	l2.88,2.88l-65.494,65.494l-2.88-2.933c-1.386-1.333-3.626-1.333-5.014,0l-11.2,11.253c-1.173,1.173-1.386,3.04-0.48,4.426
	c6.774,10.506,14.08,20.214,22.08,29.067c4.586,5.174,9.441,10.027,14.56,14.614h0.053l101.226,101.227
	c-1.386-0.373-2.88-0.533-4.374-0.533H127.571c-10.079,0-18.24,8.16-18.24,18.24v32.267l106.101,106.101
	c13.217,2.105,26.757,3.232,40.566,3.232C363.756,512,455.898,445.39,493.664,351.126z"/>
<path style="fill:#DC8744;" d="M280.888,352.176H127.547c-10.059,0-18.214,8.154-18.214,18.214v32.276h189.769V370.39
	C299.102,360.331,290.948,352.176,280.888,352.176z"/>
<path style="fill:#2F4859;" d="M398.631,340.915L255.078,197.361l-19.484,19.484l143.552,143.553
	c5.38,5.38,14.104,5.381,19.485,0.001C404.013,355.019,404.012,346.295,398.631,340.915z"/>
<rect x="188.591" y="131.722" transform="matrix(0.7071 0.7071 -0.7071 0.7071 201.2816 -105.9841)" style="fill:#3A556A;" width="79.968" height="116.509"/>
<g>
	<path style="fill:#64798A;" d="M226.394,254.475l-62.347-62.347c-1.376-1.376-3.606-1.376-4.982,0l-11.226,11.226
		c-1.176,1.176-1.382,3.037-0.482,4.437c17.109,26.629,37.948,48.196,63.402,63.498c1.394,0.839,3.201,0.601,4.351-0.549
		l11.283-11.283C227.77,258.08,227.77,255.85,226.394,254.475z"/>
	<path style="fill:#64798A;" d="M229.526,126.648l62.347,62.347c1.376,1.376,3.606,1.376,4.982,0l11.226-11.226
		c1.176-1.176,1.382-3.038,0.482-4.438c-17.109-26.629-37.948-48.196-63.402-63.498c-1.394-0.839-3.201-0.601-4.351,0.549
		l-11.283,11.283C228.15,123.042,228.15,125.272,229.526,126.648z"/>
</g>
<g>
</g>
<g>
</g>
<g>
</g>
<g>
</g>
<g>
</g>
<g>
</g>
<g>
</g>
<g>
</g>
<g>
</g>
<g>
</g>
<g>
</g>
<g>
</g>
<g>
</g>
<g>
</g>
<g>
</g>
</svg>
