<?xml version="1.0" encoding="iso-8859-1"?>
<!-- Generator: Adobe Illustrator 19.0.0, SVG Export Plug-In . SVG Version: 6.00 Build 0)  -->
<svg version="1.1" id="Layer_1" xmlns="http://www.w3.org/2000/svg" xmlns:xlink="http://www.w3.org/1999/xlink" x="0px" y="0px"
	 viewBox="0 0 512 512" style="enable-background:new 0 0 512 512;" xml:space="preserve">
<rect x="306.509" y="109.52" transform="matrix(-0.6342 0.7732 -0.7732 -0.6342 678.4489 66.2968)" style="fill:#999999;" width="34.063" height="168.251"/>
<path style="fill:#FF8C78;" d="M500.406,315.302l-22.951,27.983c-5.593,6.818-15.653,7.812-22.471,2.22l-86.418-70.877
	l-2.368-23.969l21.601-26.337l23.969-2.368l86.418,70.877C505.004,298.423,505.999,308.483,500.406,315.302z"/>
<path style="fill:#DF7A6E;" d="M372.896,242.49l-6.7,8.168l2.368,23.969l86.419,70.877c6.818,5.593,16.879,4.598,22.47-2.22
	l6.976-8.506L372.896,242.49z"/>
<path style="fill:#E5E5E5;" d="M335.017,81.912c-18.032,10.373-43.192,27.652-67.171,55.043
	c-29.677,33.9-44.333,68.198-51.634,89.812c-26.338-21.601-52.674-43.202-79.012-64.803c18.519-10.706,46.535-29.881,72.571-61.627
	c13.565-16.539,33.038-44.349,46.233-83.228C282.343,38.71,308.68,60.311,335.017,81.912z"/>
<g>
	<path style="fill:#B2B2B2;" d="M241.739,214.411l-12.151,14.815c-5.593,6.818-15.653,7.812-22.471,2.22l-74.073-60.752
		c-6.818-5.593-7.812-15.653-2.22-22.471l12.151-14.815c5.593-6.818,15.653-7.812,22.471-2.22l74.073,60.752
		C246.336,197.532,247.33,207.593,241.739,214.411z"/>
	<path style="fill:#B2B2B2;" d="M338.942,95.894l-12.151,14.815c-5.593,6.818-15.653,7.812-22.471,2.22l-74.073-60.752
		c-6.818-5.593-7.812-15.653-2.22-22.471l12.151-14.815c5.593-6.818,15.653-7.812,22.471-2.22l74.073,60.752
		C343.54,79.015,344.535,89.075,338.942,95.894z"/>
</g>
<polygon style="fill:#E5E5E5;" points="140.303,176.647 160.87,193.516 192.915,153.718 172.763,137.19 "/>
<path style="fill:#999999;" d="M239.518,191.94l-11.737-9.626l-31.776,40.019l11.111,9.113c6.818,5.593,16.879,4.598,22.471-2.22
	l12.151-14.815C247.33,207.593,246.336,197.532,239.518,191.94z"/>
<polygon style="fill:#E5E5E5;" points="237.684,58.275 257.006,74.122 289.05,34.324 270.144,18.817 "/>
<path style="fill:#999999;" d="M336.722,73.423l-13.614-11.166l-31.776,40.019l12.988,10.653c6.818,5.592,16.879,4.598,22.471-2.22
	l12.151-14.815C344.535,89.075,343.54,79.015,336.722,73.423z"/>
<polygon style="fill:#FFD791;" points="186.811,324.126 118.686,358.188 118.686,468.891 169.78,468.891 169.78,409.282 
	203.842,409.282 203.842,468.891 254.936,468.891 254.936,358.188 "/>
<polygon style="fill:#F8BE73;" points="118.686,358.188 118.686,468.891 144.765,468.891 144.765,345.149 "/>
<rect x="93.139" y="468.89" style="fill:#E5E5E5;" width="187.343" height="34.062"/>
<rect x="93.139" y="468.89" style="fill:#CCCCCC;" width="51.094" height="34.062"/>
<path d="M503.248,286.658l-86.419-70.877c-1.637-1.343-3.742-1.979-5.847-1.772l-20.679,2.044l-19.605-16.08
	c-3.407-2.796-8.44-2.3-11.235,1.109c-2.796,3.409-2.299,8.44,1.11,11.235l15.99,13.114l-11.476,13.993l-102.165-83.793
	c3.5-4.594,11.303-13.834,11.489-14.043l53.529,42.675c3.681,2.935,9.25,1.973,11.746-2.009c2.128-3.393,1.337-7.98-1.793-10.475
	l-52.515-41.865c4.081-4.083,8.296-8.039,12.636-11.83l1.243,1.02c4.445,3.646,9.822,5.421,15.166,5.421
	c6.932,0,13.811-2.987,18.539-8.752l12.15-14.814c4.058-4.945,5.945-11.177,5.316-17.542c-0.628-6.366-3.699-12.107-8.645-16.164
	L267.711,6.497c-4.945-4.058-11.176-5.943-17.542-5.316c-6.366,0.629-12.107,3.7-16.164,8.647l-12.151,14.814
	c-4.058,4.946-5.945,11.177-5.316,17.543s3.7,12.107,8.645,16.164l2.495,2.046c-7.062,12.256-15.144,23.983-24.08,34.879
	c-9.321,11.365-19.682,21.972-30.823,31.601l-2.268-1.861c-10.21-8.374-25.332-6.88-33.706,3.331L124.65,143.16
	c-8.374,10.211-6.88,25.332,3.331,33.707l74.073,60.752c4.446,3.647,9.822,5.422,15.167,5.422c6.932,0,13.812-2.987,18.54-8.752
	l12.15-14.814c4.058-4.946,5.945-11.177,5.316-17.543s-3.7-12.107-8.645-16.164l-0.984-0.807c3.14-5.561,6.488-10.998,10.029-16.304
	l104.951,86.078l2.043,20.678c0.208,2.107,1.245,4.045,2.883,5.388l86.419,70.877c10.085,8.272,25.44,6.745,33.706-3.33
	l22.952-27.983l0,0C514.953,310.153,513.459,295.032,503.248,286.658z M234.2,34.768l12.152-14.815
	c2.758-3.364,7.871-3.869,11.235-1.11l74.074,60.752c3.363,2.758,3.869,7.871,1.109,11.235l0,0l-12.15,14.814
	c-2.791,3.402-7.829,3.903-11.236,1.11l-74.073-60.752C231.906,43.211,231.408,38.171,234.2,34.768z M235.566,209.348
	L235.566,209.348l-12.151,14.815c-2.759,3.364-7.869,3.87-11.235,1.11l-74.073-60.752c-3.404-2.792-3.902-7.832-1.11-11.236
	l12.151-14.814c2.754-3.358,7.875-3.866,11.235-1.11l74.073,60.752C237.818,200.871,238.326,205.983,235.566,209.348z
	 M185.295,137.143c11.042-9.739,21.333-20.385,30.649-31.744c8.933-10.89,17.072-22.556,24.249-34.74l45.324,37.173
	c-8.371,7.46-16.318,15.457-23.679,23.864c-11.6,13.251-21.924,27.685-30.773,42.988L185.295,137.143z M494.234,310.239
	L494.234,310.239l-22.952,27.983c-2.792,3.403-7.83,3.901-11.236,1.11l-83.862-68.781l-1.717-17.388l17.406-21.223l17.388-1.718
	l83.863,68.78C496.527,301.795,497.025,306.835,494.234,310.239z"/>
<path d="M96.962,348.165l89.849-49.008l89.848,49.008c4.081,2.228,9.316,0.398,11.156-3.854c1.616-3.734,0.057-8.216-3.509-10.162
	l-93.672-51.094c-2.382-1.301-5.263-1.301-7.646,0l-93.672,51.094c-3.87,2.111-5.298,6.96-3.186,10.831
	C88.242,348.85,93.092,350.277,96.962,348.165z"/>
<path d="M306.029,494.97h-17.563v-26.079c0-4.409-3.573-7.983-7.983-7.983h-17.563V358.188c0-3.024-1.708-5.788-4.413-7.14
	l-68.125-34.062c-2.247-1.124-4.893-1.124-7.14,0l-68.125,34.062c-2.705,1.352-4.413,4.116-4.413,7.14v102.719H93.139
	c-4.409,0-7.983,3.574-7.983,7.983v26.079H67.593c-4.409,0-7.983,3.574-7.983,7.983s3.574,7.983,7.983,7.983h68.125
	c4.409,0,7.983-3.574,7.983-7.983s-3.574-7.983-7.983-7.983h-34.595v-18.096h171.376v18.096h-94.204
	c-4.409,0-7.983,3.574-7.983,7.983s3.574,7.983,7.983,7.983h127.734c4.41,0,7.983-3.574,7.983-7.983S310.439,494.97,306.029,494.97z
	 M195.859,460.908h-18.096v-43.642h18.096V460.908z M211.825,460.908v-51.626c0-4.409-3.574-7.983-7.983-7.983H169.78
	c-4.409,0-7.983,3.574-7.983,7.983v51.626h-35.127v-97.786l60.141-30.071l60.141,30.071v97.786H211.825z"/>
<path d="M399.701,391.718c4.41,0,7.983-3.574,7.983-7.983s-3.573-7.983-7.983-7.983h-17.563v-9.048c0-4.409-3.573-7.983-7.983-7.983
	c-4.41,0-7.983,3.574-7.983,7.983v9.048h-6.919c-10.271,0-18.628,8.357-18.628,18.628v17.031c0,10.271,8.357,18.628,18.628,18.628
	h6.919v22.353h-17.563c-4.41,0-7.983,3.574-7.983,7.983c0,4.409,3.573,7.983,7.983,7.983h17.563v9.048
	c0,4.409,3.573,7.983,7.983,7.983c4.41,0,7.983-3.574,7.983-7.983v-9.048h6.919c10.271,0,18.628-8.357,18.628-18.628V432.7
	c0-10.271-8.357-18.628-18.628-18.628h-6.919v-22.353H399.701z M389.056,430.039c1.468,0,2.661,1.194,2.661,2.661v17.031
	c0,1.467-1.193,2.661-2.661,2.661h-6.919v-22.353H389.056z M366.17,414.072h-6.919c-1.468,0-2.661-1.194-2.661-2.661v-17.031
	c0-1.467,1.193-2.661,2.661-2.661h6.919V414.072z"/>
<path d="M416.732,128.799c-4.41,0-7.983,3.574-7.983,7.983s3.573,7.983,7.983,7.983h17.563v9.048c0,4.409,3.573,7.983,7.983,7.983
	c4.41,0,7.983-3.574,7.983-7.983v-9.048h6.919c10.271,0,18.628-8.357,18.628-18.628v-17.031c0-10.271-8.357-18.628-18.628-18.628
	h-6.919V68.126h17.563c4.41,0,7.983-3.574,7.983-7.983s-3.573-7.983-7.983-7.983h-17.563v-9.048c0-4.409-3.573-7.983-7.983-7.983
	c-4.41,0-7.983,3.574-7.983,7.983v9.048h-6.919c-10.271,0-18.628,8.357-18.628,18.628v17.031c0,10.271,8.357,18.628,18.628,18.628
	h6.919v22.353C434.295,128.799,416.732,128.799,416.732,128.799z M427.376,90.479c-1.468,0-2.661-1.194-2.661-2.661V70.787
	c0-1.467,1.193-2.661,2.661-2.661h6.919v22.353H427.376z M450.262,106.446h6.919c1.468,0,2.661,1.194,2.661,2.661v17.031
	c0,1.467-1.193,2.661-2.661,2.661h-6.919V106.446z"/>
<path d="M67.06,245.357v-17.031c0-10.271-8.357-18.628-18.628-18.628h-6.919v-22.353h17.563c4.409,0,7.983-3.574,7.983-7.983
	c0-4.409-3.574-7.983-7.983-7.983H41.514v-9.048c0-4.409-3.574-7.983-7.983-7.983c-4.409,0-7.983,3.574-7.983,7.983v9.048h-6.919
	C8.357,171.377,0,179.734,0,190.005v17.031c0,10.271,8.357,18.628,18.628,18.628h6.919v22.353H7.983
	c-4.409,0-7.983,3.574-7.983,7.983c0,4.409,3.574,7.983,7.983,7.983h17.563v9.048c0,4.409,3.574,7.983,7.983,7.983
	c4.409,0,7.983-3.574,7.983-7.983v-9.048h6.919C58.703,263.984,67.06,255.627,67.06,245.357z M18.628,209.698
	c-1.467,0-2.661-1.194-2.661-2.661v-17.031c0-1.467,1.194-2.661,2.661-2.661h6.919v22.353H18.628z M41.514,225.664h6.919
	c1.467,0,2.661,1.194,2.661,2.661v17.031c0,1.467-1.194,2.661-2.661,2.661h-6.919V225.664z"/>
<g>
</g>
<g>
</g>
<g>
</g>
<g>
</g>
<g>
</g>
<g>
</g>
<g>
</g>
<g>
</g>
<g>
</g>
<g>
</g>
<g>
</g>
<g>
</g>
<g>
</g>
<g>
</g>
<g>
</g>
</svg>
