<?xml version="1.0" encoding="iso-8859-1"?>
<!-- Generator: Adobe Illustrator 16.0.0, SVG Export Plug-In . SVG Version: 6.00 Build 0)  -->
<!DOCTYPE svg PUBLIC "-//W3C//DTD SVG 1.1//EN" "http://www.w3.org/Graphics/SVG/1.1/DTD/svg11.dtd">
<svg xmlns="http://www.w3.org/2000/svg" xmlns:xlink="http://www.w3.org/1999/xlink" version="1.1" id="Capa_1" x="0px" y="0px" width="512px" height="512px" viewBox="0 0 462.1 462.1" style="enable-background:new 0 0 462.1 462.1;" xml:space="preserve">
<g>
	<path d="M71,166.75H29.4v-75.3c0-34.3,27.5-62.4,61.8-62.4l0,0h279.1c34.3,0,61.8,27.5,61.8,62.4v75.3h-41.6v-19.6   c0-16.5-13.5-30-30-30h-79.6c-16.5,0-30,13.5-30,30v19.6H209.3v-19.6c0-16.5-13.5-30-30-30H99.7c-16.5,0-30,13.5-30,30v19.6H71z    M0,213.35V328.45c0,33.699,26.3,60.6,59.4,61.8v12.8c0,16.5,13.5,30,30,30h31.8c16.5,0,30-13.5,30-30v-12.2h160.3v12.2   c0,16.5,13.5,30,30,30h31.2c16.5,0,30-13.5,30-30v-12.9c33-1.199,59.399-28.199,59.399-61.8v-115H0z" />
</g>
<g>
</g>
<g>
</g>
<g>
</g>
<g>
</g>
<g>
</g>
<g>
</g>
<g>
</g>
<g>
</g>
<g>
</g>
<g>
</g>
<g>
</g>
<g>
</g>
<g>
</g>
<g>
</g>
<g>
</g>
</svg>
