<svg xmlns="http://www.w3.org/2000/svg" xmlns:xlink="http://www.w3.org/1999/xlink" version="1.1" id="Capa_1" x="0px" y="0px" viewBox="0 0 276.188 276.188" style="enable-background:new 0 0 276.188 276.188;" xml:space="preserve" width="40px" height="40px">
 <!-- Created with Method Draw - http://github.com/duopixel/Method-Draw/ -->
 <g>
  
  <rect fill="none" id="canvas_background" height="278.188" width="278.188" y="-1" x="-1"/>
 </g>
 <g>
  <path stroke="null" id="svg_2" d="m72.593997,138.226026l65.500002,-128.000001l65.500002,128.000001l-65.500002,128.000001l-65.500002,-128.000001z" fill-opacity="null" stroke-opacity="null" stroke-width="1.5" fill="#5D37B3"/>
  <ellipse stroke="null" ry="87.500001" rx="73.500005" id="svg_3" cy="98.093991" cx="138.093999" fill-opacity="null" stroke-opacity="null" stroke-width="1.5" fill="#5D37B3"/>
  <path stroke="null" id="svg_14" d="m188.343848,83.368102l-13.026164,-12.797613l0,-30.564646l-11.167107,0l0,19.593472l-26.056583,-25.599406l-50.249854,49.368193l11.96263,-0.280026l0,49.911528l76.04268,0l0,-49.631501l12.494397,0zm-50.249854,42.492924l-24.814375,0l0,-29.256464l24.814375,0l0,29.256464zm24.108188,-12.538485l-16.306103,0l0,-16.893518l16.306103,0l0,16.893518z" fill-opacity="null" stroke-opacity="null" stroke-width="7" fill="#07d0ff"/>
  <rect id="svg_15" height="37.999887" width="62.999812" y="90.844131" x="108.344083" fill-opacity="null" stroke-opacity="null" stroke-width="7" stroke="null" fill="#07d0ff"/>
 </g>
</svg>