<?xml version="1.0" encoding="iso-8859-1"?>
<!-- Generator: Adobe Illustrator 19.0.0, SVG Export Plug-In . SVG Version: 6.00 Build 0)  -->
<svg version="1.1" id="Layer_1" xmlns="http://www.w3.org/2000/svg" xmlns:xlink="http://www.w3.org/1999/xlink" x="0px" y="0px"
	 viewBox="0 0 512 512" style="enable-background:new 0 0 512 512;" xml:space="preserve">
<path style="fill:#5C4621;" d="M512,310.566c0-9.63-7.88-17.508-17.509-17.508H17.508C7.878,293.058,0,300.936,0,310.566v110.602
	c0,9.63,7.878,17.509,17.508,17.509H494.49c9.63,0,17.509-7.878,17.509-17.509V310.566H512z"/>
<path style="opacity:0.2;enable-background:new    ;" d="M108.928,386.092H29.555c-4.629,0-8.381-3.753-8.381-8.381
	s3.753-8.381,8.381-8.381h79.372c4.629,0,8.381,3.753,8.381,8.381C117.309,382.339,113.556,386.092,108.928,386.092z"/>
<path style="opacity:0.2;enable-background:new    ;" d="M491.782,408.974H379.851c-4.63,0-8.381-3.753-8.381-8.381
	s3.751-8.381,8.381-8.381h111.931c4.63,0,8.381,3.753,8.381,8.381C500.163,405.221,496.411,408.974,491.782,408.974z"/>
<path style="opacity:0.2;enable-background:new    ;" d="M118.528,335.783H47.334c-4.629,0-8.381-3.753-8.381-8.381
	s3.753-8.381,8.381-8.381h71.194c4.629,0,8.381,3.753,8.381,8.381S123.158,335.783,118.528,335.783z"/>
<path style="opacity:0.1;enable-background:new    ;" d="M494.491,327.783H17.508c-9.63,0-17.508,7.88-17.508,17.509v75.875
	c0,9.63,7.878,17.509,17.508,17.509H494.49c9.63,0,17.509-7.878,17.509-17.509v-75.875C512,335.663,504.12,327.783,494.491,327.783z
	"/>
<path style="fill:#FF6D68;" d="M204.641,53.022c11.63,61.208-34.676,103.895-62.347,149.913c-1.885-4.605-3.233-9.463-3.877-14.628
	c-4.906-39.317-71.742,19.296-71.742,108.854c0,39.622,32.119,71.742,71.742,71.742c10.769,0,20.977-2.389,30.144-6.64
	c23.385,20.401,53.965,32.761,87.436,32.761c73.49,0,133.068-59.577,133.068-133.069C389.063,16.838,190.921-19.177,204.641,53.022z
	"/>
<path style="fill:#F9BE00;" d="M318.37,297.772c0,34.416-27.901,62.315-62.314,62.315c-34.416,0-62.316-27.9-62.316-62.315
	c0-43.483,29.595-56.156,47.644-115.887C251.338,148.942,318.37,174.364,318.37,297.772z"/>
<g>
	<path style="fill:#FF6D68;" d="M446.453,99.518c0,17.728-14.372,32.099-32.1,32.099c-17.727,0-32.1-14.371-32.1-32.099
		s14.372-79.551,32.1-79.551C432.081,19.967,446.453,81.79,446.453,99.518z"/>
	<path style="fill:#FF6D68;" d="M147.171,98.146c0,15.654-12.69,28.344-28.344,28.344S90.482,113.8,90.482,98.146
		c0-15.655,12.69-70.246,28.344-70.246C134.48,27.9,147.171,82.491,147.171,98.146z"/>
</g>
<path style="fill:#846331;" d="M447.845,254.899c-3.016-9.146-12.966-14.16-22.112-11.143L94.952,352.866
	c-9.146,3.016-14.159,12.966-11.143,22.112l34.646,105.034c3.016,9.146,12.966,14.16,22.112,11.143l330.781-109.11
	c9.146-3.016,14.161-12.966,11.143-22.112L447.845,254.899z"/>
<path style="opacity:0.2;enable-background:new    ;" d="M272.979,335.785c-3.519,0-6.796-2.234-7.958-5.757
	c-1.451-4.396,0.938-9.136,5.334-10.585l70.817-23.359c4.4-1.452,9.136,0.939,10.585,5.334c1.451,4.396-0.938,9.136-5.333,10.585
	l-70.817,23.359C274.734,335.649,273.849,335.785,272.979,335.785z"/>
<path style="opacity:0.2;enable-background:new    ;" d="M353.655,375.227c-3.519,0-6.796-2.234-7.958-5.757
	c-1.451-4.396,0.938-9.136,5.333-10.585l70.815-23.359c4.401-1.452,9.136,0.939,10.585,5.334c1.451,4.396-0.938,9.136-5.334,10.585
	l-70.815,23.359C355.411,375.09,354.526,375.227,353.655,375.227z"/>
<path style="opacity:0.2;enable-background:new    ;" d="M158.33,426.766c-3.519,0-6.796-2.234-7.958-5.757
	c-1.449-4.396,0.938-9.136,5.334-10.585l38.882-12.826c4.395-1.451,9.136,0.938,10.585,5.334c1.449,4.396-0.938,9.136-5.334,10.585
	l-38.882,12.826C160.086,426.628,159.201,426.766,158.33,426.766z"/>
<path style="opacity:0.1;enable-background:new    ;" d="M482.536,360.1l-23.474-71.168c-3.018-9.146-12.967-14.16-22.112-11.144
	L106.167,386.899c-9.081,2.996-14.079,12.826-11.196,21.918l23.484,71.196c3.016,9.146,12.966,14.16,22.112,11.143l330.781-109.11
	C480.438,379.047,485.439,369.199,482.536,360.1z"/>
<g>
</g>
<g>
</g>
<g>
</g>
<g>
</g>
<g>
</g>
<g>
</g>
<g>
</g>
<g>
</g>
<g>
</g>
<g>
</g>
<g>
</g>
<g>
</g>
<g>
</g>
<g>
</g>
<g>
</g>
</svg>
