<?xml version="1.0" encoding="iso-8859-1"?>
<!-- Generator: Adobe Illustrator 19.0.0, SVG Export Plug-In . SVG Version: 6.00 Build 0)  -->
<svg version="1.1" id="Layer_1" xmlns="http://www.w3.org/2000/svg" xmlns:xlink="http://www.w3.org/1999/xlink" x="0px" y="0px"
	 viewBox="0 0 512.003 512.003" style="enable-background:new 0 0 512.003 512.003;" xml:space="preserve">
<g>
	<path style="fill:#BA6B24;" d="M107.687,382.59v-44.518c0-16.096,12.72-29.146,28.408-29.146h239.8
		c15.7,0,28.421,13.051,28.421,29.146v44.518"/>
	<path style="fill:#BA6B24;" d="M440.215,161.324v60.517l-4.057,160.75H71.783V161.324c0-59.203,46.786-107.193,104.476-107.193
		H335.74C393.442,54.131,440.215,102.12,440.215,161.324z"/>
</g>
<g>
	<path style="fill:#A55C20;" d="M164.776,308.928c-15.688,0-28.413,13.045-28.413,29.141v44.518h-28.677v-44.518
		c0-16.095,12.714-29.141,28.402-29.141H164.776z"/>
	<path style="fill:#A55C20;" d="M404.316,338.069v44.518H375.63v-44.518c0-16.095-12.725-29.141-28.423-29.141h28.686
		C391.591,308.928,404.316,321.972,404.316,338.069z"/>
	<path style="fill:#A55C20;" d="M103.346,161.327c0-59.201,46.775-107.193,104.475-107.193h-31.557
		c-57.7,0-104.476,47.992-104.476,107.193v60.512v160.75h31.558V221.84C103.346,221.84,103.346,161.327,103.346,161.327z"/>
	<path style="fill:#A55C20;" d="M440.215,218.771v3.07l-4.057,160.75h-47.052V273.927c0-24.04,14.974-44.516,35.895-52.087
		C429.805,220.098,434.902,219.032,440.215,218.771z"/>
	<path style="fill:#A55C20;" d="M71.783,218.771v3.07l4.057,160.75h47.052V273.927c0-24.04-14.974-44.516-35.895-52.087
		C82.193,220.098,77.096,219.032,71.783,218.771z"/>
</g>
<g>
	<path style="fill:#BA6B24;" d="M107.687,382.59v-44.518v-64.138c0-24.052-14.982-44.518-35.899-52.094
		c-5.789-2.103-12.037-3.211-18.546-3.14c-29.108,0.322-52.962,24.83-53.239,54.696c-0.167,17.99,8.044,34.013,20.873,44.216
		c16.54,13.155,25.782,33.78,25.782,55.251v9.727"/>
	<path style="fill:#BA6B24;" d="M404.316,382.59v-44.518v-64.138c0-24.052,14.982-44.518,35.899-52.094
		c5.613-2.038,11.643-3.143,17.938-3.143c29.749,0,53.849,24.727,53.849,55.237c0,17.511-7.937,33.113-20.323,43.23
		c-16.383,13.382-26.346,33.349-26.346,54.835v10.592"/>
</g>
<g>
	<path style="fill:#A55C20;" d="M189.187,193.994c-3.501,0-6.34-2.913-6.34-6.505v-41.234c0-3.592,2.839-6.505,6.34-6.505
		s6.34,2.913,6.34,6.505v41.234C195.527,191.083,192.688,193.994,189.187,193.994z"/>
	<path style="fill:#A55C20;" d="M209.282,173.378h-40.189c-3.501,0-6.34-2.913-6.34-6.505s2.839-6.505,6.34-6.505h40.189
		c3.501,0,6.34,2.913,6.34,6.505S212.782,173.378,209.282,173.378z"/>
	<path style="fill:#A55C20;" d="M322.811,193.994c-3.501,0-6.34-2.913-6.34-6.505v-41.234c0-3.592,2.839-6.505,6.34-6.505
		c3.501,0,6.34,2.913,6.34,6.505v41.234C329.151,191.083,326.312,193.994,322.811,193.994z"/>
	<path style="fill:#A55C20;" d="M342.906,173.378h-40.189c-3.501,0-6.34-2.913-6.34-6.505s2.839-6.505,6.34-6.505h40.189
		c3.501,0,6.34,2.913,6.34,6.505S346.407,173.378,342.906,173.378z"/>
	<path style="fill:#A55C20;" d="M112.798,407.346v50.526H73.836l6.859-11.214c4.4-7.181,3.208-16.782-3.195-22.154
		c-4.83-4.072-7.924-10.238-7.924-17.158"/>
	<path style="fill:#A55C20;" d="M442.416,407.346c0,6.92-3.094,13.087-7.924,17.158c-6.403,5.373-7.595,14.974-3.195,22.154
		l6.859,11.214h-38.963v-50.526"/>
</g>
<polygon style="fill:#CFDCE5;" points="77.939,415.15 46.658,415.15 46.658,381.289 107.687,381.289 404.316,381.289 
	465.332,381.289 465.332,415.15 434.052,415.15 "/>
<polygon style="fill:#BAC6CC;" points="50.158,415.15 46.658,415.15 46.658,381.289 53.487,381.289 77.827,381.289 84.654,381.289 
	84.654,415.15 81.154,415.15 "/>
<g>
	<rect x="117.185" y="285.627" style="fill:#A55C20;" width="278.91" height="23.31"/>
	<ellipse style="fill:#A55C20;" cx="460.474" cy="275.126" rx="24" ry="24.624"/>
	<ellipse style="fill:#A55C20;" cx="51.521" cy="275.126" rx="24" ry="24.624"/>
</g>
<g>
</g>
<g>
</g>
<g>
</g>
<g>
</g>
<g>
</g>
<g>
</g>
<g>
</g>
<g>
</g>
<g>
</g>
<g>
</g>
<g>
</g>
<g>
</g>
<g>
</g>
<g>
</g>
<g>
</g>
</svg>
