<?xml version="1.0" encoding="iso-8859-1"?>
<!-- Generator: Adobe Illustrator 19.0.0, SVG Export Plug-In . SVG Version: 6.00 Build 0)  -->
<svg version="1.1" id="Layer_1" xmlns="http://www.w3.org/2000/svg" xmlns:xlink="http://www.w3.org/1999/xlink" x="0px" y="0px"
	 viewBox="0 0 512.001 512.001" style="enable-background:new 0 0 512.001 512.001;" xml:space="preserve">
<rect y="239.305" style="fill:#CECED1;" width="512.001" height="33.391"/>
<g>
	<rect x="256.001" y="239.305" style="fill:#9B9BA1;" width="256.001" height="33.391"/>
	<path style="fill:#9B9BA1;" d="M78.348,368.105c-24.843,0-45.055-20.216-45.055-45.066V188.951
		c0-24.838,20.211-45.045,45.055-45.045c24.847,0,45.061,20.206,45.061,45.045v134.088
		C123.409,347.889,103.195,368.105,78.348,368.105z"/>
</g>
<g>
	<path style="fill:#757576;" d="M146.209,412.537c-24.847,0-45.061-20.216-45.061-45.066v-222.94
		c0-24.85,20.214-45.066,45.061-45.066s45.062,20.216,45.062,45.066v222.94C191.271,392.32,171.056,412.537,146.209,412.537z"/>
	<path style="fill:#757576;" d="M433.65,368.105c-24.847,0-45.061-20.216-45.061-45.066V188.951
		c0-24.838,20.214-45.045,45.061-45.045c24.843,0,45.055,20.206,45.055,45.045v134.088
		C478.705,347.889,458.495,368.105,433.65,368.105z"/>
</g>
<path style="fill:#515255;" d="M365.79,412.537c-24.847,0-45.061-20.216-45.061-45.066v-222.94c0-24.85,20.214-45.066,45.061-45.066
	s45.061,20.216,45.061,45.066v222.94C410.851,392.32,390.637,412.537,365.79,412.537z"/>
<g>
</g>
<g>
</g>
<g>
</g>
<g>
</g>
<g>
</g>
<g>
</g>
<g>
</g>
<g>
</g>
<g>
</g>
<g>
</g>
<g>
</g>
<g>
</g>
<g>
</g>
<g>
</g>
<g>
</g>
</svg>
