<?xml version="1.0" encoding="iso-8859-1"?>
<!-- Generator: Adobe Illustrator 17.1.0, SVG Export Plug-In . SVG Version: 6.00 Build 0)  -->
<!DOCTYPE svg PUBLIC "-//W3C//DTD SVG 1.1//EN" "http://www.w3.org/Graphics/SVG/1.1/DTD/svg11.dtd">
<svg version="1.1" id="Capa_1" xmlns="http://www.w3.org/2000/svg" xmlns:xlink="http://www.w3.org/1999/xlink" x="0px" y="0px"
	 viewBox="0 0 465 465" style="enable-background:new 0 0 465 465;" xml:space="preserve">
<g>
	<path d="M395.804,53.814C352.107,19.112,294.111,0,232.5,0C170.884,0,112.887,19.112,69.192,53.814
		C24.99,88.92,0.646,135.75,0.646,185.679c0,44.306,19.762,87.187,55.645,120.743c33.756,31.567,79.901,53.216,130.482,61.321
		c3.418,31.064-7.327,62.3-29.297,84.479c-2.13,2.15-2.759,5.371-1.594,8.165c1.165,2.794,3.896,4.614,6.922,4.614
		c56.789,0,105.387-41.418,115.284-97.235c50.627-8.086,96.816-29.74,130.604-61.33c35.894-33.56,55.662-76.445,55.662-120.756
		C464.354,135.751,440.009,88.921,395.804,53.814z M270.159,353.78c-3.905,0.54-6.727,4.01-6.457,7.944
		c0.015,0.214,0.039,0.426,0.07,0.634c-6.607,44.245-40.928,78.676-83.592,86.137c17.67-24.699,25.389-55.692,21.015-86.246
		c0.025-0.175,0.043-0.352,0.056-0.531c0.271-3.933-2.55-7.404-6.456-7.944C90.989,339.428,15.646,268.733,15.646,185.679
		C15.646,91.566,112.926,15,232.5,15c119.574,0,216.854,76.566,216.854,170.679C449.354,268.749,373.992,339.445,270.159,353.78z"/>
	<path d="M155.795,163.179c-12.407,0-22.5,10.093-22.5,22.5s10.093,22.5,22.5,22.5s22.5-10.093,22.5-22.5
		S168.202,163.179,155.795,163.179z M155.795,193.179c-4.136,0-7.5-3.364-7.5-7.5s3.364-7.5,7.5-7.5s7.5,3.364,7.5,7.5
		S159.931,193.179,155.795,193.179z"/>
	<path d="M309.205,163.179c-12.407,0-22.5,10.093-22.5,22.5s10.093,22.5,22.5,22.5s22.5-10.093,22.5-22.5
		S321.611,163.179,309.205,163.179z M309.205,193.179c-4.136,0-7.5-3.364-7.5-7.5s3.364-7.5,7.5-7.5s7.5,3.364,7.5,7.5
		S313.34,193.179,309.205,193.179z"/>
	<path d="M232.5,163.179c-12.407,0-22.5,10.093-22.5,22.5s10.093,22.5,22.5,22.5s22.5-10.093,22.5-22.5
		S244.907,163.179,232.5,163.179z M232.5,193.179c-4.136,0-7.5-3.364-7.5-7.5s3.364-7.5,7.5-7.5s7.5,3.364,7.5,7.5
		S236.636,193.179,232.5,193.179z"/>
</g>
<g>
</g>
<g>
</g>
<g>
</g>
<g>
</g>
<g>
</g>
<g>
</g>
<g>
</g>
<g>
</g>
<g>
</g>
<g>
</g>
<g>
</g>
<g>
</g>
<g>
</g>
<g>
</g>
<g>
</g>
</svg>
