<?xml version="1.0" encoding="iso-8859-1"?>
<!-- Generator: Adobe Illustrator 19.0.0, SVG Export Plug-In . SVG Version: 6.00 Build 0)  -->
<svg version="1.1" id="Layer_1" xmlns="http://www.w3.org/2000/svg" xmlns:xlink="http://www.w3.org/1999/xlink" x="0px" y="0px"
	 viewBox="0 0 512 512" style="enable-background:new 0 0 512 512;" xml:space="preserve">
<path style="fill:#FFD782;" d="M469.779,161.937c18.891,0,34.205,15.314,34.205,34.205v273.637
	c0,18.891-15.314,34.205-34.205,34.205H42.221c-18.891,0-34.205-15.314-34.205-34.205V196.142c0-18.891,15.314-34.205,34.205-34.205
	H469.779z"/>
<path style="fill:#FFC36E;" d="M303.689,332.96L488.297,167.45c-5.344-3.456-11.681-5.512-18.519-5.512H42.221
	c-6.838,0-13.174,2.057-18.519,5.512L208.311,332.96H303.689z"/>
<path style="fill:#EFF2FA;" d="M444.125,25.119c0-9.406-7.696-17.102-17.102-17.102H84.977c-9.406,0-17.102,7.696-17.102,17.102
	v181.933L208.311,332.96h95.377l140.437-125.908V25.119z"/>
<path style="fill:#FFC36E;" d="M42.221,503.983h427.557c9.23,0,17.572-3.695,23.725-9.638L290.72,312.54
	c-19.757-17.714-49.682-17.714-69.441,0L18.496,494.345C24.65,500.288,32.991,503.983,42.221,503.983z"/>
<path d="M110.63,67.34H401.37c4.427,0,8.017-3.589,8.017-8.017s-3.589-8.017-8.017-8.017H110.63c-4.427,0-8.017,3.589-8.017,8.017
	S106.203,67.34,110.63,67.34z"/>
<path d="M401.37,94.063H221.795c-4.427,0-8.017,3.589-8.017,8.017c0,4.427,3.589,8.017,8.017,8.017H401.37
	c4.427,0,8.017-3.589,8.017-8.017C409.386,97.652,405.797,94.063,401.37,94.063z"/>
<path d="M110.63,110.096h76.96c4.427,0,8.017-3.589,8.017-8.017c0-4.427-3.589-8.017-8.017-8.017h-76.96
	c-4.427,0-8.017,3.589-8.017,8.017C102.614,106.507,106.203,110.096,110.63,110.096z"/>
<path d="M110.63,152.852h196.676c4.427,0,8.017-3.589,8.017-8.017c0-4.427-3.589-8.017-8.017-8.017H110.63
	c-4.427,0-8.017,3.589-8.017,8.017C102.614,149.262,106.203,152.852,110.63,152.852z"/>
<path d="M401.37,136.818h-59.858c-4.427,0-8.017,3.589-8.017,8.017c0,4.427,3.589,8.017,8.017,8.017h59.858
	c4.427,0,8.017-3.589,8.017-8.017C409.386,140.408,405.797,136.818,401.37,136.818z"/>
<path d="M401.37,179.574H179.04c-4.427,0-8.017,3.589-8.017,8.017s3.589,8.017,8.017,8.017h222.33c4.427,0,8.017-3.589,8.017-8.017
	S405.797,179.574,401.37,179.574z"/>
<path d="M110.63,195.608h34.205c4.427,0,8.017-3.589,8.017-8.017s-3.589-8.017-8.017-8.017H110.63c-4.427,0-8.017,3.589-8.017,8.017
	S106.203,195.608,110.63,195.608z"/>
<path d="M469.779,153.921h-17.637V25.119C452.142,11.268,440.874,0,427.023,0H84.977C71.126,0,59.858,11.268,59.858,25.119v128.828
	c-0.177-0.012-0.354-0.027-0.534-0.027H42.221C18.941,153.921,0,172.861,0,196.142v273.637C0,493.059,18.941,512,42.221,512h427.557
	c23.28,0,42.221-18.941,42.221-42.221V196.142C512,172.861,493.059,153.921,469.779,153.921z M495.967,469.779
	c0,4.767-1.287,9.238-3.522,13.093L320.467,328.685l168.124-150.733c4.56,4.715,7.374,11.128,7.374,18.19v273.637H495.967z
	 M203.542,317.918l-41.044-36.799h25.093c4.427,0,8.017-3.589,8.017-8.017c0-4.427-3.589-8.017-8.017-8.017h-42.756
	c-0.071,0-0.139,0.009-0.21,0.011l-29.818-26.733h282.384l-29.818,26.733c-0.071-0.001-0.139-0.011-0.21-0.011h-145.37
	c-4.427,0-8.017,3.589-8.017,8.017c0,4.427,3.589,8.017,8.017,8.017h127.707l-41.044,36.799l-12.858-11.527
	c-22.576-20.241-56.626-20.241-79.202,0L203.542,317.918z M469.779,169.954c1.172,0,2.323,0.086,3.454,0.235l-21.09,18.908v-19.143
	H469.779z M84.977,16.033h342.046c5.01,0,9.086,4.076,9.086,9.086v178.353l-27.14,24.333c-1.064-3.18-4.061-5.475-7.599-5.475
	H110.63c-3.538,0-6.535,2.295-7.599,5.475l-27.14-24.333V25.119C75.891,20.109,79.967,16.033,84.977,16.033z M59.324,169.954
	c0.181,0,0.357-0.015,0.534-0.027v19.171l-21.09-18.909c1.131-0.15,2.282-0.235,3.454-0.235H59.324z M16.033,196.142
	c0-7.062,2.814-13.474,7.374-18.19l168.125,150.733L19.555,482.872c-2.235-3.854-3.522-8.326-3.522-13.093V196.142z M42.221,495.967
	c-3.81,0-7.428-0.824-10.695-2.293l195.577-175.344c16.475-14.77,41.321-14.77,57.796,0l195.577,175.344
	c-3.269,1.469-6.887,2.293-10.695,2.293H42.221z"/>
<g>
</g>
<g>
</g>
<g>
</g>
<g>
</g>
<g>
</g>
<g>
</g>
<g>
</g>
<g>
</g>
<g>
</g>
<g>
</g>
<g>
</g>
<g>
</g>
<g>
</g>
<g>
</g>
<g>
</g>
</svg>
