<svg  viewBox="0 0 612 612" style="enable-background:new 0 0 612 612;" xmlns="http://www.w3.org/2000/svg">

 <g>
  <title>background</title>
  <rect fill="none" id="canvas_background" y="-1" x="-1"/>
 </g>
 <g>
  <title>Layer 1</title>
  <g id="svg_1">
   <g id="Shape_379_1_">
    <g id="svg_2">
     <path id="svg_3" fill="#78E3FD" d="m609.208,298.575l-295.902,-294.76c-3.987,-3.988 -10.445,-3.988 -14.433,0l-295.912,294.76c-3.988,3.988 -3.907,10.353 0,14.393c1.999,2.06 4.61,3.11 7.201,3.131l0,0.041l71.441,0l0,284.865c0,2.815 1.142,5.335 2.988,7.171c1.846,1.856 4.396,3.009 7.211,3.009l142.8,0c5.63,0 10.2,-4.569 10.2,-10.18l0,-203.449l122.401,0l0,203.449c0,5.6 4.569,10.18 10.2,10.18l142.8,0c5.63,0 10.2,-4.569 10.2,-10.18l0,-284.865l71.899,0c2.673,0.051 5.191,-1 6.905,-3.162c3.469,-4.437 3.99,-10.415 0.001,-14.403z"/>
    </g>
   </g>
  </g>
  <g id="svg_4"/>
  <g id="svg_5"/>
  <g id="svg_6"/>
  <g id="svg_7"/>
  <g id="svg_8"/>
  <g id="svg_9"/>
  <g id="svg_10"/>
  <g id="svg_11"/>
  <g id="svg_12"/>
  <g id="svg_13"/>
  <g id="svg_14"/>
  <g id="svg_15"/>
  <g id="svg_16"/>
  <g id="svg_17"/>
  <g id="svg_18"/>
  <g stroke="null" transform="rotate(0.059662871062755585 304.0039672850072,363.0039672851674) " id="svg_40">
   <g stroke="null" transform="matrix(20.16050078701842,0,0,25.617560789853155,-277.895568016811,-29.310785417101215) " id="svg_23">
    <path stroke="null" id="svg_24" fill="#E0939A" d="m35.945848,14.59829c-0.604,-3.065 -5.861,-4.881 -7.083,-2.583c-1.22,-2.299 -6.477,-0.483 -7.081,2.583c-0.79,3.204 -4.97,4.085 -7.291,2.414c0,3.622 3.901,3.669 6.315,3.9c5.718,-0.25 7.525,-2.889 8.057,-4.093c0.532,1.205 2.34,3.843 8.058,4.093c2.416,-0.231 6.315,-0.278 6.315,-3.9c-2.322,1.671 -6.501,0.79 -7.29,-2.414z"/>
   </g>
   <g stroke="null" transform="matrix(20.16050078701842,0,0,25.617560789853155,-277.895568016811,-29.310785417101215) " id="svg_25"/>
   <g stroke="null" transform="matrix(20.16050078701842,0,0,25.617560789853155,-277.895568016811,-29.310785417101215) " id="svg_26"/>
   <g stroke="null" transform="matrix(20.16050078701842,0,0,25.617560789853155,-277.895568016811,-29.310785417101215) " id="svg_27"/>
   <g stroke="null" transform="matrix(20.16050078701842,0,0,25.617560789853155,-277.895568016811,-29.310785417101215) " id="svg_28"/>
   <g stroke="null" transform="matrix(20.16050078701842,0,0,25.617560789853155,-277.895568016811,-29.310785417101215) " id="svg_29"/>
   <g stroke="null" transform="matrix(20.16050078701842,0,0,25.617560789853155,-277.895568016811,-29.310785417101215) " id="svg_30"/>
   <g stroke="null" transform="matrix(20.16050078701842,0,0,25.617560789853155,-277.895568016811,-29.310785417101215) " id="svg_31"/>
   <g stroke="null" transform="matrix(20.16050078701842,0,0,25.617560789853155,-277.895568016811,-29.310785417101215) " id="svg_32"/>
   <g stroke="null" transform="matrix(20.16050078701842,0,0,25.617560789853155,-277.895568016811,-29.310785417101215) " id="svg_33"/>
   <g stroke="null" transform="matrix(20.16050078701842,0,0,25.617560789853155,-277.895568016811,-29.310785417101215) " id="svg_34"/>
   <g stroke="null" transform="matrix(20.16050078701842,0,0,25.617560789853155,-277.895568016811,-29.310785417101215) " id="svg_35"/>
   <g stroke="null" transform="matrix(20.16050078701842,0,0,25.617560789853155,-277.895568016811,-29.310785417101215) " id="svg_36"/>
   <g stroke="null" transform="matrix(20.16050078701842,0,0,25.617560789853155,-277.895568016811,-29.310785417101215) " id="svg_37"/>
   <g stroke="null" transform="matrix(20.16050078701842,0,0,25.617560789853155,-277.895568016811,-29.310785417101215) " id="svg_38"/>
   <g stroke="null" transform="matrix(20.16050078701842,0,0,25.617560789853155,-277.895568016811,-29.310785417101215) " id="svg_39"/>
  </g>
 </g>
</svg>