<?xml version="1.0" encoding="iso-8859-1"?>
<!-- Generator: Adobe Illustrator 19.0.0, SVG Export Plug-In . SVG Version: 6.00 Build 0)  -->
<svg version="1.1" id="Layer_1" xmlns="http://www.w3.org/2000/svg" xmlns:xlink="http://www.w3.org/1999/xlink" x="0px" y="0px"
	 viewBox="0 0 512 512" style="enable-background:new 0 0 512 512;" xml:space="preserve">
<path style="fill:#FF9F19;" d="M83.478,205.913c-9.217,0-16.696,7.473-16.696,16.696v66.783c0,9.223,7.479,16.696,16.696,16.696
	h116.87V205.913H83.478z"/>
<path style="fill:#EDF0F2;" d="M361.739,205.913H166.957v100.174h194.783c9.217,0,16.696-7.473,16.696-16.696v-66.783
	C378.435,213.386,370.956,205.913,361.739,205.913z"/>
<path style="fill:#B7C4CC;" d="M428.522,306.087c-9.217,0-16.696-7.473-16.696-16.696v-66.783c0-9.223,7.479-16.696,16.696-16.696
	c9.217,0,16.696,7.473,16.696,16.696v66.783C445.217,298.614,437.739,306.087,428.522,306.087z"/>
<path style="fill:#F28618;" d="M83.478,205.913c-9.217,0-16.696,7.473-16.696,16.696v66.783c0,9.223,7.479,16.696,16.696,16.696
	h116.87V205.913H83.478z"/>
<polygon style="fill:#DAE1E6;" points="205.913,205.913 166.957,205.913 166.957,306.087 306.087,306.087 "/>
<path style="fill:#D9472B;" d="M256,0C185.433,0,121.322,28.717,75.019,75.019C28.238,121.8,0,186.145,0,256
	c0,141.357,114.643,256,256,256c70.567,0,134.456-28.605,180.87-74.908l0.111-0.111C483.283,390.678,512,326.79,512,256
	C512,114.643,397.357,0,256,0z M256,478.609c-122.769,0-222.609-99.84-222.609-222.609c0-55.43,20.257-106.184,53.871-145.141
	l313.878,313.878C362.184,458.351,311.43,478.609,256,478.609z M424.737,401.141L110.859,87.263
	C149.816,53.649,200.57,33.391,256,33.391c122.769,0,222.609,99.84,222.609,222.609C478.609,311.43,458.351,362.184,424.737,401.141
	z"/>
<path style="fill:#E6563A;" d="M86.929,86.929h-0.111l-11.798-11.91C28.238,121.8,0,186.145,0,256c0,141.357,114.643,256,256,256
	c70.567,0,134.456-28.605,180.87-74.908l0.111-0.111L86.929,86.929z M256,478.609c-122.769,0-222.609-99.84-222.609-222.609
	c0-55.43,20.257-106.184,53.871-145.141l313.878,313.878C362.184,458.351,311.43,478.609,256,478.609z"/>
<g>
</g>
<g>
</g>
<g>
</g>
<g>
</g>
<g>
</g>
<g>
</g>
<g>
</g>
<g>
</g>
<g>
</g>
<g>
</g>
<g>
</g>
<g>
</g>
<g>
</g>
<g>
</g>
<g>
</g>
</svg>
