<?xml version="1.0" encoding="iso-8859-1"?>
<!-- Generator: Adobe Illustrator 18.0.0, SVG Export Plug-In . SVG Version: 6.00 Build 0)  -->
<!DOCTYPE svg PUBLIC "-//W3C//DTD SVG 1.1//EN" "http://www.w3.org/Graphics/SVG/1.1/DTD/svg11.dtd">
<svg xmlns="http://www.w3.org/2000/svg" xmlns:xlink="http://www.w3.org/1999/xlink" version="1.1" id="Capa_1" x="0px" y="0px" viewBox="0 0 276.188 276.188" style="enable-background:new 0 0 276.188 276.188;" xml:space="preserve" width="40px" height="40px">
<g>
	<path d="M138.096,0c-51.606,0-93.59,41.984-93.59,93.589c0,47.124,24.622,93.947,45.276,124.928   c22.249,33.374,44.158,55.41,45.08,56.331c0.857,0.858,2.021,1.34,3.234,1.34c1.213,0,2.376-0.482,3.234-1.34   c0.922-0.921,22.83-22.958,45.078-56.331c20.654-30.981,45.274-77.804,45.274-124.928C231.683,41.984,189.7,0,138.096,0z    M138.096,264.992c-15.854-16.984-84.443-94.909-84.443-171.403c0-46.562,37.881-84.442,84.443-84.442   c46.56,0,84.439,37.88,84.439,84.442C222.535,170.083,153.949,248.008,138.096,264.992z" fill="#5D37B3"/>
	<path d="M141.327,45.846c-1.786-1.787-4.682-1.787-6.468,0L82.715,97.987c-1.786,1.786-1.786,4.682,0,6.468   c1.786,1.786,4.682,1.786,6.468,0l7.468-7.467v41.105c0,2.526,2.048,4.574,4.574,4.574h73.743c2.526,0,4.574-2.048,4.574-4.574   v-41.1l7.462,7.461c0.893,0.893,2.064,1.34,3.234,1.34s2.341-0.447,3.234-1.34c1.786-1.786,1.786-4.682,0-6.468L141.327,45.846z    M170.393,133.52h-64.596V87.841l32.295-32.293l32.301,32.299V133.52z" fill="#5D37B3"/>
</g>
<g>
</g>
<g>
</g>
<g>
</g>
<g>
</g>
<g>
</g>
<g>
</g>
<g>
</g>
<g>
</g>
<g>
</g>
<g>
</g>
<g>
</g>
<g>
</g>
<g>
</g>
<g>
</g>
<g>
</g>
</svg>
