<?xml version="1.0" encoding="iso-8859-1"?>
<!-- Generator: Adobe Illustrator 19.0.0, SVG Export Plug-In . SVG Version: 6.00 Build 0)  -->
<svg version="1.1" id="Layer_1" xmlns="http://www.w3.org/2000/svg" xmlns:xlink="http://www.w3.org/1999/xlink" x="0px" y="0px"
	 viewBox="0 0 512 512" style="enable-background:new 0 0 512 512;" xml:space="preserve">
<path style="fill:#E1EAF6;" d="M414.897,512H97.103c-9.751,0-17.655-7.904-17.655-17.655V17.655C79.448,7.904,87.352,0,97.103,0
	h317.793c9.751,0,17.655,7.904,17.655,17.655v476.69C432.552,504.096,424.648,512,414.897,512z"/>
<path style="fill:#D4DEED;" d="M432.552,88.276H79.448V17.655C79.448,7.904,87.352,0,97.103,0h317.793
	c9.751,0,17.655,7.904,17.655,17.655V88.276z"/>
<circle style="fill:#C4CFE3;" cx="256" cy="256" r="141.241"/>
<circle style="fill:#929CB4;" cx="256" cy="256" r="114.759"/>
<circle style="fill:#444455;" cx="256" cy="256" r="97.103"/>
<circle style="fill:#5A5D6F;" cx="256" cy="256" r="61.793"/>
<path style="fill:#C4CFE3;" d="M185.379,88.276h-79.448c-4.875,0-8.828-3.953-8.828-8.828V26.483c0-4.875,3.953-8.828,8.828-8.828
	h79.448c4.875,0,8.828,3.953,8.828,8.828v52.966C194.207,84.323,190.254,88.276,185.379,88.276z"/>
<path style="fill:#D4DEED;" d="M397.241,485.517h-70.621c-4.875,0-8.828-3.953-8.828-8.828v-44.138c0-4.875,3.953-8.828,8.828-8.828
	h70.621c4.875,0,8.828,3.953,8.828,8.828v44.138C406.069,481.565,402.116,485.517,397.241,485.517z"/>
<path style="fill:#C4CFE3;" d="M379.586,291.31h-17.655c-9.751,0-17.655-7.904-17.655-17.655v-35.31
	c0-9.751,7.904-17.655,17.655-17.655h17.655V291.31z"/>
<path style="fill:#ABB9D3;" d="M167.724,70.621h-44.138c-4.875,0-8.828,3.953-8.828,8.828v8.828h61.793v-8.828
	C176.552,74.573,172.599,70.621,167.724,70.621z"/>
<circle style="fill:#929CB4;" cx="256" cy="44.138" r="26.483"/>
<g>
	<path style="fill:#C4CFE3;" d="M317.793,61.793L317.793,61.793c-4.875,0-8.828-3.953-8.828-8.828V35.31
		c0-4.875,3.953-8.828,8.828-8.828l0,0c4.875,0,8.828,3.953,8.828,8.828v17.655C326.621,57.841,322.668,61.793,317.793,61.793z"/>
	<path style="fill:#C4CFE3;" d="M344.276,61.793L344.276,61.793c-4.875,0-8.828-3.953-8.828-8.828V35.31
		c0-4.875,3.953-8.828,8.828-8.828l0,0c4.875,0,8.828,3.953,8.828,8.828v17.655C353.103,57.841,349.151,61.793,344.276,61.793z"/>
	<path style="fill:#C4CFE3;" d="M370.759,61.793L370.759,61.793c-4.875,0-8.828-3.953-8.828-8.828V35.31
		c0-4.875,3.953-8.828,8.828-8.828l0,0c4.875,0,8.828,3.953,8.828,8.828v17.655C379.586,57.841,375.634,61.793,370.759,61.793z"/>
	<path style="fill:#C4CFE3;" d="M397.241,61.793L397.241,61.793c-4.875,0-8.828-3.953-8.828-8.828V35.31
		c0-4.875,3.953-8.828,8.828-8.828l0,0c4.875,0,8.828,3.953,8.828,8.828v17.655C406.069,57.841,402.116,61.793,397.241,61.793z"/>
</g>
<g>
</g>
<g>
</g>
<g>
</g>
<g>
</g>
<g>
</g>
<g>
</g>
<g>
</g>
<g>
</g>
<g>
</g>
<g>
</g>
<g>
</g>
<g>
</g>
<g>
</g>
<g>
</g>
<g>
</g>
</svg>
