<?xml version="1.0" encoding="iso-8859-1"?>
<!-- Generator: Adobe Illustrator 19.0.0, SVG Export Plug-In . SVG Version: 6.00 Build 0)  -->
<svg version="1.1" id="Layer_1" xmlns="http://www.w3.org/2000/svg" xmlns:xlink="http://www.w3.org/1999/xlink" x="0px" y="0px"
	 viewBox="0 0 512 512" style="enable-background:new 0 0 512 512;" xml:space="preserve">
<g>
	<g>
		<path d="M438.649,80.366c-0.628-4.284-4.614-7.237-8.891-6.618c-4.283,0.628-7.245,4.609-6.617,8.891
			c0.549,3.744,0.828,7.581,0.828,11.403c0,4.328,3.508,7.837,7.837,7.837c4.329,0,7.837-3.509,7.837-7.837
			C439.642,89.462,439.309,84.86,438.649,80.366z"/>
	</g>
</g>
<g>
	<g>
		<path d="M432.614,58.601c-6.885-16.29-17.938-28.42-31.122-34.157c-3.967-1.726-8.585,0.091-10.312,4.059
			c-1.727,3.969,0.091,8.586,4.059,10.313c9.342,4.065,17.704,13.5,22.939,25.886c1.264,2.99,4.167,4.788,7.221,4.788
			c1.018,0,2.052-0.2,3.048-0.621C432.433,67.186,434.299,62.587,432.614,58.601z"/>
	</g>
</g>
<g>
	<g>
		<path d="M460.54,94.041C460.54,42.187,426.557,0,384.785,0S309.03,42.187,309.03,94.041c0,48.569,29.815,88.656,67.918,93.539
			v43.383c-11.326,0.542-20.377,9.765-20.377,21.056v238.873c0,11.639,9.609,21.108,21.42,21.108h13.584
			c11.813,0,21.423-9.469,21.423-21.108v-43.676c0-4.328-3.509-7.837-7.837-7.837c-4.329,0-7.837,3.509-7.837,7.837v43.676
			c0,2.997-2.579,5.435-5.749,5.435h-13.584c-3.169,0-5.747-2.438-5.747-5.435V252.019c0-2.997,2.578-5.435,5.747-5.435h13.584
			c3.17,0,5.749,2.438,5.749,5.435v163.85c0,4.328,3.508,7.837,7.837,7.837c4.328,0,7.837-3.509,7.837-7.837v-163.85
			c0-11.291-9.051-20.512-20.377-21.056V187.58C430.725,182.697,460.54,142.61,460.54,94.041z M384.785,172.408
			c-33.13,0-60.082-35.156-60.082-78.367s26.952-78.367,60.082-78.367s60.082,35.156,60.082,78.367S417.914,172.408,384.785,172.408
			z"/>
	</g>
</g>
<g>
	<g>
		<path d="M153.338,0c-4.329,0-7.837,3.509-7.837,7.837v102.763H129.52V7.837c0-4.328-3.508-7.837-7.837-7.837
			c-4.329,0-7.837,3.509-7.837,7.837v102.763H98.788V7.837C98.788,3.509,95.28,0,90.951,0c-4.329,0-7.837,3.509-7.837,7.837v102.763
			H67.134V7.837C67.134,3.509,63.626,0,59.297,0c-4.329,0-7.837,3.509-7.837,7.837v144.036c0,10.082,8.203,18.286,18.286,18.286
			h28.735v60.805c-11.326,0.542-20.377,9.765-20.377,21.056v238.873c0,11.639,9.609,21.108,21.42,21.108h13.584
			c11.813,0,21.422-9.469,21.422-21.108V331.233c0-4.328-3.508-7.837-7.837-7.837c-4.329,0-7.837,3.509-7.837,7.837v159.66
			c0,2.997-2.579,5.434-5.749,5.434H99.524c-3.169,0-5.747-2.438-5.747-5.434V252.019c0-2.997,2.578-5.435,5.747-5.435h13.584
			c3.17,0,5.749,2.438,5.749,5.435v49.957c0,4.328,3.508,7.837,7.837,7.837c4.329,0,7.837-3.509,7.837-7.837v-49.957
			c0-11.291-9.051-20.512-20.377-21.056v-60.805h28.735c10.082,0,18.286-8.203,18.286-18.286V7.837
			C161.174,3.509,157.667,0,153.338,0z M145.501,151.873c0,1.44-1.171,2.612-2.612,2.612H69.746c-1.441,0-2.612-1.172-2.612-2.612
			v-25.6h78.367V151.873z"/>
	</g>
</g>
<g>
	<g>
		<path d="M268.801,181.29c-4.329,0-7.837,3.509-7.837,7.837v132.026h-43.783c-3.169,0-5.747-2.438-5.747-5.435V103.445
			c0-25.671,6.274-48.697,17.663-64.836c8.615-12.206,19.724-19.887,31.867-22.198V155.69c0,4.328,3.508,7.837,7.837,7.837
			c4.329,0,7.837-3.509,7.837-7.837V7.837c0-4.328-3.508-7.837-7.837-7.837c-20.403,0-39.051,10.502-52.509,29.571
			c-13.431,19.031-20.531,44.576-20.531,73.874v212.273c0,11.639,9.609,21.108,21.42,21.108h3.03v25.34v128.726
			c0,11.639,9.609,21.108,21.421,21.108h13.585c11.812,0,21.42-9.469,21.42-21.108V189.127
			C276.638,184.799,273.13,181.29,268.801,181.29z M260.964,490.892c0,2.997-2.578,5.435-5.747,5.435h-13.585
			c-3.169,0-5.748-2.438-5.748-5.435V370.003h25.08V490.892z M260.964,354.329h-25.08v-17.503h25.08V354.329z"/>
	</g>
</g>
<g>
</g>
<g>
</g>
<g>
</g>
<g>
</g>
<g>
</g>
<g>
</g>
<g>
</g>
<g>
</g>
<g>
</g>
<g>
</g>
<g>
</g>
<g>
</g>
<g>
</g>
<g>
</g>
<g>
</g>
</svg>
