<?xml version="1.0" encoding="iso-8859-1"?>
<!-- Generator: Adobe Illustrator 19.0.0, SVG Export Plug-In . SVG Version: 6.00 Build 0)  -->
<svg version="1.1" id="Layer_1" xmlns="http://www.w3.org/2000/svg" xmlns:xlink="http://www.w3.org/1999/xlink" x="0px" y="0px"
	 viewBox="0 0 512 512" style="enable-background:new 0 0 512 512;" xml:space="preserve">
<g>
	<g>
		<path d="M377.525,125.388v-12.295h15.22c5.085,0,9.206-4.122,9.206-9.206V28.991C401.951,13.006,388.947,0,372.96,0H139.028
			c-15.986,0-28.991,13.006-28.991,28.991v74.896c0,5.084,4.122,9.206,9.206,9.206h15.22v12.295
			c-28.148,0.443-50.913,23.463-50.913,51.714v23.16c0,5.084,4.122,9.206,9.206,9.206c5.084,0,9.206-4.122,9.206-9.206v-23.16
			c0-18.374,14.949-33.324,33.324-33.324h166.743c5.085,0,9.206-4.122,9.206-9.206s-4.12-9.206-9.206-9.206H152.873v-12.274h206.241
			v12.274h-23.333c-5.085,0-9.206,4.122-9.206,9.206s4.12,9.206,9.206,9.206h40.934c18.375,0,33.324,14.949,33.324,33.324v273.957
			h-20.154c-5.085,0-9.206,4.122-9.206,9.206s4.12,9.206,9.206,9.206h18.851c-4.005,13.91-16.839,24.118-32.021,24.118H135.285
			c-15.182,0-28.015-10.208-32.021-24.118h253.481c5.085,0,9.206-4.122,9.206-9.206s-4.12-9.206-9.206-9.206H101.961V235.241
			c0-5.084-4.122-9.206-9.206-9.206c-5.084,0-9.206,4.122-9.206,9.206v225.024c0,28.527,23.208,51.735,51.735,51.735h241.431
			c28.527,0,51.735-23.208,51.735-51.735V177.102C428.451,148.847,405.68,125.824,377.525,125.388z M128.448,94.682V49.268h185.24
			c5.085,0,9.206-4.122,9.206-9.206c0-5.084-4.12-9.206-9.206-9.206h-185.24v-1.866c0-5.834,4.746-10.58,10.58-10.58H372.96
			c5.834,0,10.58,4.746,10.58,10.58v1.866h-34.257c-5.085,0-9.206,4.122-9.206,9.206s4.12,9.206,9.206,9.206h34.257v45.414H128.448z
			"/>
	</g>
</g>
<g>
	<g>
		<path d="M335.88,258.295h-35.448v-35.447c0-5.084-4.12-9.206-9.206-9.206h-70.453c-5.084,0-9.206,4.122-9.206,9.206v35.447h-35.46
			c-5.084,0-9.206,4.122-9.206,9.206v70.453c0,5.084,4.122,9.206,9.206,9.206h35.46v35.447c0,5.084,4.122,9.206,9.206,9.206h70.453
			c5.085,0,9.206-4.122,9.206-9.206v-35.447h35.448c5.085,0,9.206-4.122,9.206-9.206v-70.453
			C345.085,262.417,340.965,258.295,335.88,258.295z M326.674,328.748h-35.448c-5.085,0-9.206,4.122-9.206,9.206v35.448h-52.042
			v-35.448c0-5.084-4.122-9.206-9.206-9.206h-35.46v-52.042h35.46c5.084,0,9.206-4.122,9.206-9.206v-35.448h52.042v35.448
			c0,5.084,4.12,9.206,9.206,9.206h35.448V328.748z"/>
	</g>
</g>
<g>
</g>
<g>
</g>
<g>
</g>
<g>
</g>
<g>
</g>
<g>
</g>
<g>
</g>
<g>
</g>
<g>
</g>
<g>
</g>
<g>
</g>
<g>
</g>
<g>
</g>
<g>
</g>
<g>
</g>
</svg>
