<?xml version="1.0" encoding="iso-8859-1"?>
<!-- Generator: Adobe Illustrator 17.1.0, SVG Export Plug-In . SVG Version: 6.00 Build 0)  -->
<!DOCTYPE svg PUBLIC "-//W3C//DTD SVG 1.1//EN" "http://www.w3.org/Graphics/SVG/1.1/DTD/svg11.dtd">
<svg version="1.1" id="Capa_1" xmlns="http://www.w3.org/2000/svg" xmlns:xlink="http://www.w3.org/1999/xlink" x="0px" y="0px"
	 viewBox="0 0 442 442" style="enable-background:new 0 0 442 442;" xml:space="preserve">
<path d="M405.586,131.215c0-5.523-4.477-10-10-10h-50.51V77.099C345.076,34.586,310.49,0,267.978,0
	C250.307,0,234.017,5.99,221,16.026C207.983,5.99,191.693,0,174.022,0C131.51,0,96.924,34.586,96.924,77.099v44.116h-50.51
	c-5.523,0-10,4.477-10,10V432c0,5.523,4.477,10,10,10h255.218h93.955c1.053,0,2.067-0.165,3.021-0.467
	c0.072-0.023,0.141-0.053,0.213-0.078c0.245-0.084,0.488-0.171,0.724-0.272c0.117-0.051,0.23-0.112,0.346-0.167
	c0.185-0.089,0.37-0.176,0.549-0.275c0.131-0.073,0.258-0.156,0.386-0.235c0.158-0.097,0.316-0.194,0.468-0.3
	c0.127-0.088,0.249-0.184,0.372-0.278c0.15-0.115,0.298-0.232,0.441-0.355c0.112-0.096,0.22-0.196,0.328-0.298
	c0.15-0.141,0.295-0.287,0.436-0.437c0.054-0.058,0.113-0.107,0.166-0.167c0.043-0.048,0.078-0.1,0.12-0.148
	c0.121-0.14,0.235-0.284,0.348-0.431c0.091-0.118,0.182-0.236,0.267-0.357c0.101-0.143,0.194-0.291,0.287-0.439
	c0.082-0.132,0.165-0.263,0.241-0.397c0.082-0.146,0.157-0.296,0.232-0.446c0.071-0.143,0.143-0.285,0.207-0.43
	c0.066-0.15,0.124-0.304,0.183-0.458c0.057-0.151,0.116-0.301,0.166-0.453c0.051-0.154,0.093-0.312,0.136-0.469
	c0.043-0.158,0.087-0.316,0.122-0.475c0.034-0.154,0.06-0.31,0.087-0.467c0.029-0.17,0.057-0.339,0.078-0.51
	c0.018-0.149,0.029-0.3,0.04-0.451c0.013-0.183,0.024-0.365,0.028-0.547c0.001-0.064,0.01-0.127,0.01-0.192V131.215z
	 M385.586,409.621l-26.978-24.16V231.86c0-5.523-4.477-10-10-10s-10,4.477-10,10v153.601l-26.978,24.16V141.215h26.978v50.646
	c0,5.523,4.477,10,10,10s10-4.477,10-10v-50.646h26.978V409.621z M348.609,403.353L369.431,422h-41.644L348.609,403.353z
	 M325.076,77.099v44.116h-23.445h-50.51V77.099c0-17.571-5.92-33.778-15.855-46.759C244.539,23.834,255.816,20,267.978,20
	C299.462,20,325.076,45.615,325.076,77.099z M210.878,121.215V77.099c0-12.027,3.747-23.19,10.122-32.404
	c6.375,9.213,10.122,20.377,10.122,32.404v44.116H210.878z M116.924,77.099c0-31.484,25.614-57.099,57.099-57.099
	c12.162,0,23.439,3.834,32.711,10.34c-9.934,12.981-15.855,29.188-15.855,46.759v44.116h-73.955V77.099z M56.414,141.215h235.218
	V422H56.414V141.215z"/>
<g>
</g>
<g>
</g>
<g>
</g>
<g>
</g>
<g>
</g>
<g>
</g>
<g>
</g>
<g>
</g>
<g>
</g>
<g>
</g>
<g>
</g>
<g>
</g>
<g>
</g>
<g>
</g>
<g>
</g>
</svg>
