<?xml version="1.0" encoding="iso-8859-1"?>
<!-- Generator: Adobe Illustrator 19.0.0, SVG Export Plug-In . SVG Version: 6.00 Build 0)  -->
<svg xmlns="http://www.w3.org/2000/svg" xmlns:xlink="http://www.w3.org/1999/xlink" version="1.1" id="Capa_1" x="0px" y="0px" viewBox="0 0 220.9 220.9" style="enable-background:new 0 0 220.9 220.9;" xml:space="preserve" width="30px" height="30px">
<g>
	<path d="M219.558,108.316L113.969,3.661c-0.943-0.935-2.198-1.45-3.532-1.45c-1.336,0-2.59,0.516-3.532,1.451L1.341,108.345   c-1.259,1.249-1.662,2.842-1.078,4.261c0.583,1.416,1.983,2.262,3.764,2.262l19.451,0.041l-0.041,98.801   c0,2.699,2.388,4.979,5.214,4.979h78.525l-4.408-4.987c-0.068-0.076-6.811-7.709-11.654-13.772   c-3.012-3.769-5.935-7.327-8.453-10.292c-10.203-12.011-22.366-29.459-22.366-44.374c0-27.637,22.494-50.12,50.144-50.12   c27.648,0,50.142,22.499,50.142,50.154c0,14.982-12.124,32.428-22.295,44.424l-0.503,0.594c-2.422,2.855-5.168,6.093-7.829,9.434   c-4.888,6.135-11.629,13.895-11.696,13.972l-4.32,4.969h78.286c2.827,0,5.215-2.28,5.215-4.98l-0.02-98.938l19.503,0.037   c2.604,0,3.512-1.716,3.729-2.241C220.866,112.038,221.43,110.171,219.558,108.316z" fill="#7D53DE"/>
	<path d="M139.833,144.934c0-16.103-13.1-29.202-29.201-29.202s-29.201,13.1-29.201,29.202c0,16.102,13.1,29.201,29.201,29.201   S139.833,161.035,139.833,144.934z" fill="#7D53DE"/>
</g>
<g>
</g>
<g>
</g>
<g>
</g>
<g>
</g>
<g>
</g>
<g>
</g>
<g>
</g>
<g>
</g>
<g>
</g>
<g>
</g>
<g>
</g>
<g>
</g>
<g>
</g>
<g>
</g>
<g>
</g>
</svg>
